<?xml version="1.0" encoding="UTF-8"?>
<!-- Copyright Colton Atticus Gurley -->
<svg id="CAG_pauseicon" xmlns="http://www.w3.org/2000/svg" xmlns:xlink="http://www.w3.org/1999/xlink" viewBox="0 0 100 100">
  <polygon points="0.00,0.00 4.50,4.50 4.50,95.50 0.00,100.00" style="fill: #050505;" />
  <polygon points="0.00,100.00 4.50,95.50 23.00,95.50 27.50,100.00" style="fill: #050505;" />
  <polygon points="27.50,100.00 23.00,95.50 23.00,4.50 27.50,0.00" style="fill: #050505;" />
  <polygon points="27.50,0.00 23.00,4.50 4.50,4.50 0.00,0.00" style="fill: #050505;" />
  <polygon points="59.10,0.00 63.60,4.50 63.60,95.50 59.10,100.00" style="fill: #050505;" />
  <polygon points="59.10,100.00 63.60,95.50 82.10,95.50 86.60,100.00" style="fill: #050505;" />
  <polygon points="86.60,100.00 82.10,95.50 82.10,4.50 86.60,0.00" style="fill: #050505;" />
  <polygon points="86.60,0.00 82.10,4.50 63.60,4.50 59.10,0.00" style="fill: #050505;" />
</svg>
